<svg width="24" height="25" viewBox="0 0 24 25" fill="none" xmlns="http://www.w3.org/2000/svg">
<path d="M14.9062 13.5781C15.2188 13.8594 15.5781 14 15.9844 14C16.3906 14 16.7344 13.8594 17.0156 13.5781C17.3281 13.2969 17.4844 12.9375 17.4844 12.5C17.4844 12.0625 17.3281 11.7031 17.0156 11.4219C16.7344 11.1406 16.3906 11 15.9844 11C15.5781 11 15.2188 11.1406 14.9062 11.4219C14.625 11.7031 14.4844 12.0625 14.4844 12.5C14.4844 12.9375 14.625 13.2969 14.9062 13.5781ZM12 16.4844V8.51562H21.9844V16.4844H12ZM21 18.5V19.4844C21 20.0156 20.7969 20.4844 20.3906 20.8906C19.9844 21.2969 19.5156 21.5 18.9844 21.5H5.01562C4.45312 21.5 3.96875 21.2969 3.5625 20.8906C3.1875 20.4844 3 20.0156 3 19.4844V5.51562C3 4.98438 3.1875 4.51562 3.5625 4.10938C3.96875 3.70312 4.45312 3.5 5.01562 3.5H18.9844C19.5156 3.5 19.9844 3.70312 20.3906 4.10938C20.7969 4.51562 21 4.98438 21 5.51562V6.5H12C11.4375 6.5 10.9531 6.70312 10.5469 7.10938C10.1719 7.51562 9.98438 7.98438 9.98438 8.51562V16.4844C9.98438 17.0156 10.1719 17.4844 10.5469 17.8906C10.9531 18.2969 11.4375 18.5 12 18.5H21Z" fill="#616161"/>
</svg>
