<svg width="134" height="34" viewBox="0 0 127 34" fill="none" xmlns="http://www.w3.org/2000/svg">
<path d="M20.3974 15.7516C20.3641 12.0452 23.4323 10.242 23.5726 10.158C21.8349 7.62458 19.1416 7.27843 18.1952 7.25083C15.9331 7.01278 13.7389 8.60438 12.5866 8.60438C11.4113 8.60438 9.6369 7.27383 7.72445 7.31293C5.26345 7.35088 2.96115 8.77573 1.69845 10.9883C-0.907453 15.4998 1.03605 22.1295 3.5327 25.7762C4.7816 27.5621 6.24095 29.5562 8.1511 29.4861C10.0198 29.409 10.7179 28.2947 12.973 28.2947C15.2075 28.2947 15.863 29.4861 17.8111 29.4412C19.8167 29.409 21.0794 27.6472 22.2846 25.8452C23.7278 23.7982 24.3074 21.7822 24.3304 21.6787C24.2833 21.6626 20.4354 20.1941 20.3974 15.7516Z" fill="white"/>
<path d="M16.7191 4.85176C17.7242 3.59481 18.4119 1.88476 18.221 0.149414C16.7662 0.213814 14.9469 1.15566 13.8993 2.38501C12.9724 3.46831 12.1444 5.24391 12.3583 6.91371C13.9924 7.03561 15.6703 6.08916 16.7191 4.85176Z" fill="white"/>
<path d="M47.4437 29.23H44.832L43.4014 24.7346H38.4288L37.0661 29.23H34.5234L39.45 13.9258H42.4929L47.4437 29.23ZM42.9702 22.8486L41.6764 18.8524C41.5396 18.4441 41.2831 17.4827 40.9048 15.9693H40.8588C40.7081 16.6202 40.4655 17.5816 40.132 18.8524L38.8612 22.8486H42.9702V22.8486Z" fill="white"/>
<path d="M60.1115 23.5763C60.1115 25.4531 59.6044 26.9366 58.5901 28.0257C57.6816 28.9951 56.5534 29.4793 55.2068 29.4793C53.7532 29.4793 52.709 28.9572 52.073 27.913H52.027V33.7262H49.5752V21.8272C49.5752 20.6473 49.5442 19.4363 49.4844 18.1943H51.6406L51.7775 19.9435H51.8235C52.6411 18.6256 53.882 17.9678 55.5472 17.9678C56.849 17.9678 57.9357 18.4818 58.8051 19.5111C59.6768 20.5415 60.1115 21.8962 60.1115 23.5763ZM57.6137 23.666C57.6137 22.5919 57.3722 21.7064 56.8869 21.0095C56.3568 20.2827 55.6449 19.9193 54.7525 19.9193C54.1476 19.9193 53.5979 20.1217 53.1069 20.5208C52.6147 20.9233 52.2927 21.4488 52.142 22.0997C52.0661 22.4033 52.0282 22.6517 52.0282 22.8472V24.6872C52.0282 25.4899 52.2743 26.1673 52.7665 26.7204C53.2587 27.2736 53.8981 27.5496 54.6847 27.5496C55.6081 27.5496 56.3269 27.1931 56.8409 26.4824C57.3561 25.7705 57.6137 24.8321 57.6137 23.666Z" fill="white"/>
<path d="M72.8057 23.5763C72.8057 25.4531 72.2985 26.9366 71.2831 28.0257C70.3757 28.9951 69.2476 29.4793 67.9009 29.4793C66.4473 29.4793 65.4031 28.9572 64.7683 27.913H64.7223V33.7262H62.2705V21.8272C62.2705 20.6473 62.2395 19.4363 62.1797 18.1943H64.3359L64.4728 19.9435H64.5188C65.3353 18.6256 66.5761 17.9678 68.2425 17.9678C69.5431 17.9678 70.6299 18.4818 71.5016 19.5111C72.3698 20.5415 72.8057 21.8962 72.8057 23.5763ZM70.3079 23.666C70.3079 22.5919 70.0652 21.7064 69.5799 21.0095C69.0498 20.2827 68.3402 19.9193 67.4467 19.9193C66.8406 19.9193 66.2921 20.1217 65.7999 20.5208C65.3077 20.9233 64.9868 21.4488 64.8362 22.0997C64.7614 22.4033 64.7223 22.6517 64.7223 22.8472V24.6872C64.7223 25.4899 64.9684 26.1673 65.4583 26.7204C65.9505 27.2724 66.5899 27.5496 67.3788 27.5496C68.3023 27.5496 69.021 27.1931 69.5351 26.4824C70.0503 25.7705 70.3079 24.8321 70.3079 23.666Z" fill="white"/>
<path d="M86.9983 24.9378C86.9983 26.2396 86.5464 27.2988 85.639 28.1164C84.642 29.01 83.2539 29.4562 81.4703 29.4562C79.8235 29.4562 78.5033 29.1388 77.5039 28.5028L78.072 26.4593C79.1484 27.1102 80.3295 27.4368 81.6163 27.4368C82.5398 27.4368 83.2585 27.2275 83.7749 26.8112C84.2889 26.3949 84.5454 25.836 84.5454 25.1391C84.5454 24.5181 84.3338 23.9948 83.9094 23.5705C83.4874 23.1461 82.7824 22.7517 81.798 22.3871C79.1185 21.3878 77.7799 19.9238 77.7799 17.9987C77.7799 16.7406 78.2491 15.7091 79.1887 14.9064C80.1248 14.1025 81.3737 13.7012 82.9354 13.7012C84.328 13.7012 85.4849 13.9438 86.4084 14.428L85.7954 16.4267C84.9329 15.9575 83.9577 15.7229 82.8664 15.7229C82.0039 15.7229 81.33 15.9356 80.847 16.3588C80.4387 16.7372 80.234 17.1983 80.234 17.7446C80.234 18.3495 80.4675 18.8497 80.9367 19.243C81.3449 19.6064 82.0867 19.9997 83.1631 20.4241C84.4798 20.9542 85.447 21.5741 86.0691 22.2848C86.689 22.9932 86.9983 23.8798 86.9983 24.9378Z" fill="white"/>
<path d="M95.1034 20.034H92.4009V25.3918C92.4009 26.7546 92.877 27.4354 93.8315 27.4354C94.2697 27.4354 94.6331 27.3974 94.9206 27.3215L94.9884 29.1834C94.5054 29.3639 93.8695 29.4548 93.0817 29.4548C92.1134 29.4548 91.3567 29.1592 90.8105 28.5693C90.2665 27.9782 89.9928 26.9869 89.9928 25.5942V20.0317H88.3828V18.1917H89.9928V16.1711L92.4009 15.4443V18.1917H95.1034V20.034Z" fill="white"/>
<path d="M107.297 23.621C107.297 25.3173 106.812 26.7099 105.844 27.799C104.828 28.9202 103.48 29.4791 101.8 29.4791C100.181 29.4791 98.8918 28.942 97.9304 27.8679C96.969 26.7938 96.4883 25.438 96.4883 23.8038C96.4883 22.0938 96.9828 20.6931 97.9752 19.6041C98.9654 18.5139 100.302 17.9688 101.982 17.9688C103.601 17.9688 104.904 18.5058 105.887 19.5811C106.828 20.6241 107.297 21.9708 107.297 23.621ZM104.753 23.7003C104.753 22.6826 104.536 21.8098 104.096 21.0818C103.581 20.2009 102.847 19.7616 101.894 19.7616C100.909 19.7616 100.16 20.2021 99.6462 21.0818C99.2057 21.8109 98.9884 22.6976 98.9884 23.7464C98.9884 24.7641 99.2057 25.6369 99.6462 26.3637C100.176 27.2446 100.917 27.6839 101.873 27.6839C102.809 27.6839 103.544 27.2355 104.074 26.3408C104.526 25.599 104.753 24.7169 104.753 23.7003Z" fill="white"/>
<path d="M115.267 20.3506C115.025 20.3057 114.766 20.2827 114.495 20.2827C113.632 20.2827 112.965 20.6082 112.496 21.2602C112.088 21.8352 111.883 22.562 111.883 23.4395V29.2297H109.432L109.455 21.6696C109.455 20.3977 109.424 19.2397 109.363 18.1955H111.499L111.589 20.3069H111.656C111.915 19.5812 112.323 18.997 112.882 18.5589C113.429 18.1644 114.018 17.9678 114.654 17.9678C114.881 17.9678 115.086 17.9839 115.267 18.0126V20.3506Z" fill="white"/>
<path d="M126.233 23.1901C126.233 23.6294 126.204 23.9997 126.143 24.3022H118.788C118.817 25.3924 119.172 26.2261 119.855 26.8011C120.475 27.3152 121.276 27.5728 122.261 27.5728C123.35 27.5728 124.344 27.3991 125.237 27.0507L125.621 28.7527C124.577 29.2081 123.344 29.4346 121.922 29.4346C120.21 29.4346 118.867 28.9309 117.89 27.9247C116.915 26.9184 116.426 25.5672 116.426 23.8721C116.426 22.208 116.88 20.8223 117.79 19.7171C118.742 18.5372 120.029 17.9473 121.648 17.9473C123.238 17.9473 124.442 18.5372 125.26 19.7171C125.908 20.6544 126.233 21.8136 126.233 23.1901ZM123.895 22.5542C123.911 21.8274 123.751 21.1995 123.419 20.6693C122.995 19.9874 122.343 19.647 121.465 19.647C120.664 19.647 120.011 19.9793 119.514 20.6463C119.105 21.1765 118.863 21.8124 118.788 22.553H123.895V22.5542Z" fill="white"/>
<path d="M42.1567 4.5105C42.1567 5.86405 41.7507 6.88295 40.94 7.5672C40.189 8.19855 39.1218 8.5148 37.7395 8.5148C37.0541 8.5148 36.4676 8.4849 35.9766 8.4251V1.02945C36.6171 0.925947 37.3071 0.873047 38.0523 0.873047C39.3691 0.873047 40.3615 1.1594 41.0308 1.7321C41.7806 2.37955 42.1567 3.3053 42.1567 4.5105ZM40.8859 4.54385C40.8859 3.6664 40.6536 2.99365 40.189 2.52445C39.7244 2.0564 39.0459 1.8218 38.1524 1.8218C37.7729 1.8218 37.4497 1.8471 37.1818 1.9V7.52235C37.3301 7.54535 37.6015 7.5557 37.996 7.5557C38.9183 7.5557 39.6301 7.29925 40.1315 6.78635C40.6329 6.27345 40.8859 5.52595 40.8859 4.54385Z" fill="white"/>
<path d="M48.8955 5.69212C48.8955 6.52587 48.6574 7.20896 48.1813 7.74486C47.6822 8.29571 47.021 8.57057 46.1953 8.57057C45.3995 8.57057 44.7658 8.30722 44.2932 7.77821C43.8217 7.25037 43.5859 6.58452 43.5859 5.78182C43.5859 4.94232 43.8286 4.25347 44.3162 3.71872C44.8038 3.18397 45.4593 2.91602 46.285 2.91602C47.0808 2.91602 47.7202 3.17937 48.2043 3.70722C48.6643 4.22012 48.8955 4.88252 48.8955 5.69212ZM47.6454 5.73122C47.6454 5.23097 47.5373 4.80202 47.3223 4.44437C47.0693 4.01197 46.7093 3.79576 46.2413 3.79576C45.7571 3.79576 45.3891 4.01197 45.1361 4.44437C44.9199 4.80202 44.813 5.23787 44.813 5.75307C44.813 6.25332 44.9211 6.68227 45.1361 7.03992C45.3972 7.47231 45.7606 7.68852 46.2298 7.68852C46.6898 7.68852 47.0509 7.46887 47.3108 7.02842C47.5339 6.66387 47.6454 6.23147 47.6454 5.73122Z" fill="white"/>
<path d="M57.9287 3.02637L56.2325 8.44747H55.1285L54.4258 6.09342C54.2476 5.50577 54.1027 4.92157 53.99 4.34197H53.9681C53.8635 4.93767 53.7186 5.52072 53.5323 6.09342L52.7859 8.44747H51.6693L50.0742 3.02637H51.3128L51.9257 5.60352C52.0741 6.21302 52.196 6.79377 52.2937 7.34347H52.3156C52.4053 6.89037 52.5536 6.31307 52.7629 5.61502L53.5323 3.02752H54.5144L55.2515 5.55982C55.4298 6.17737 55.5747 6.77192 55.6862 7.34462H55.7196C55.8012 6.78687 55.9243 6.19232 56.0876 5.55982L56.7454 3.02752H57.9287V3.02637Z" fill="white"/>
<path d="M64.1776 8.44804H62.9724V5.34304C62.9724 4.38624 62.609 3.90784 61.8799 3.90784C61.5222 3.90784 61.2336 4.03894 61.0093 4.30229C60.7874 4.56564 60.6747 4.87614 60.6747 5.23149V8.44689H59.4695V4.57599C59.4695 4.09989 59.4545 3.58354 59.4258 3.02464H60.4849L60.5413 3.87219H60.5746C60.7149 3.60884 60.9242 3.39149 61.1991 3.21784C61.5257 3.01544 61.8914 2.91309 62.2916 2.91309C62.7976 2.91309 63.2185 3.07639 63.5531 3.40414C63.9694 3.80549 64.1776 4.40464 64.1776 5.20044V8.44804Z" fill="white"/>
<path d="M67.5009 8.44761H66.2969V0.539062H67.5009V8.44761Z" fill="white"/>
<path d="M74.5947 5.69212C74.5947 6.52587 74.3567 7.20896 73.8806 7.74486C73.3815 8.29571 72.7191 8.57057 71.8945 8.57057C71.0976 8.57057 70.4639 8.30722 69.9924 7.77821C69.5209 7.25037 69.2852 6.58452 69.2852 5.78182C69.2852 4.94232 69.5278 4.25347 70.0154 3.71872C70.503 3.18397 71.1585 2.91602 71.9831 2.91602C72.78 2.91602 73.4183 3.17937 73.9036 3.70722C74.3636 4.22012 74.5947 4.88252 74.5947 5.69212ZM73.3435 5.73122C73.3435 5.23097 73.2354 4.80202 73.0204 4.44437C72.7685 4.01197 72.4074 3.79576 71.9405 3.79576C71.4552 3.79576 71.0872 4.01197 70.8354 4.44437C70.6192 4.80202 70.5122 5.23787 70.5122 5.75307C70.5122 6.25332 70.6203 6.68227 70.8354 7.03992C71.0964 7.47231 71.4598 7.68852 71.929 7.68852C72.389 7.68852 72.749 7.46887 73.0089 7.02842C73.2331 6.66387 73.3435 6.23147 73.3435 5.73122Z" fill="white"/>
<path d="M80.4271 8.44752H79.3449L79.2552 7.82307H79.2219C78.8516 8.32102 78.3237 8.57057 77.6383 8.57057C77.1266 8.57057 76.7126 8.40612 76.4009 8.07952C76.118 7.78282 75.9766 7.41367 75.9766 6.97552C75.9766 6.31312 76.2526 5.80826 76.808 5.45866C77.3623 5.10907 78.142 4.93771 79.146 4.94576V4.84457C79.146 4.13042 78.7711 3.77392 78.0201 3.77392C77.4854 3.77392 77.0139 3.90847 76.6068 4.17527L76.3618 3.38407C76.8655 3.07242 77.4877 2.91602 78.2214 2.91602C79.6382 2.91602 80.3489 3.66352 80.3489 5.15852V7.15492C80.3489 7.69657 80.3753 8.12781 80.4271 8.44752ZM79.1759 6.58452V5.74847C77.8465 5.72547 77.1818 6.09002 77.1818 6.84097C77.1818 7.12387 77.2577 7.33546 77.4129 7.47691C77.5682 7.61837 77.766 7.68852 78.0017 7.68852C78.2662 7.68852 78.5135 7.60457 78.7389 7.43782C78.9654 7.26992 79.1046 7.05717 79.1563 6.79612C79.169 6.73747 79.1759 6.66617 79.1759 6.58452Z" fill="white"/>
<path d="M87.2766 8.44761H86.2071L86.1507 7.57706H86.1174C85.7758 8.23946 85.1939 8.57066 84.3763 8.57066C83.7231 8.57066 83.1791 8.31421 82.7479 7.80131C82.3166 7.28841 82.1016 6.62256 82.1016 5.80491C82.1016 4.92746 82.335 4.21676 82.8042 3.67396C83.2585 3.16796 83.8151 2.91496 84.4775 2.91496C85.2054 2.91496 85.7149 3.15991 86.0047 3.65096H86.0277V0.539062H87.234V6.98711C87.234 7.51496 87.2478 8.00141 87.2766 8.44761ZM86.0277 6.16141V5.25751C86.0277 5.10111 86.0162 4.97461 85.9943 4.87801C85.9265 4.58821 85.7804 4.34441 85.5585 4.14776C85.3342 3.95111 85.064 3.85221 84.7523 3.85221C84.3027 3.85221 83.9508 4.03046 83.692 4.38811C83.4356 4.74576 83.3056 5.20231 83.3056 5.76006C83.3056 6.29596 83.4287 6.73066 83.6759 7.06531C83.937 7.42181 84.2889 7.60006 84.7293 7.60006C85.1249 7.60006 85.4412 7.45171 85.6815 7.15386C85.9138 6.87901 86.0277 6.54781 86.0277 6.16141Z" fill="white"/>
<path d="M97.583 5.69212C97.583 6.52587 97.3449 7.20896 96.8688 7.74486C96.3697 8.29571 95.7096 8.57057 94.8828 8.57057C94.0881 8.57057 93.4545 8.30722 92.9807 7.77821C92.5092 7.25037 92.2734 6.58452 92.2734 5.78182C92.2734 4.94232 92.5161 4.25347 93.0037 3.71872C93.4913 3.18397 94.1468 2.91602 94.9736 2.91602C95.7683 2.91602 96.4088 3.17937 96.8918 3.70722C97.3518 4.22012 97.583 4.88252 97.583 5.69212ZM96.3341 5.73122C96.3341 5.23097 96.226 4.80202 96.0109 4.44437C95.7568 4.01197 95.398 3.79576 94.9288 3.79576C94.4458 3.79576 94.0778 4.01197 93.8236 4.44437C93.6074 4.80202 93.5005 5.23787 93.5005 5.75307C93.5005 6.25332 93.6086 6.68227 93.8236 7.03992C94.0847 7.47231 94.4481 7.68852 94.9173 7.68852C95.3773 7.68852 95.7395 7.46887 95.9994 7.02842C96.2214 6.66387 96.3341 6.23147 96.3341 5.73122Z" fill="white"/>
<path d="M104.063 8.44804H102.859V5.34304C102.859 4.38624 102.496 3.90784 101.765 3.90784C101.408 3.90784 101.119 4.03894 100.896 4.30229C100.673 4.56564 100.561 4.87614 100.561 5.23149V8.44689H99.3551V4.57599C99.3551 4.09989 99.3413 3.58354 99.3125 3.02464H100.37L100.427 3.87219H100.46C100.602 3.60884 100.811 3.39149 101.085 3.21784C101.412 3.01544 101.777 2.91309 102.178 2.91309C102.683 2.91309 103.104 3.07639 103.439 3.40414C103.856 3.80549 104.063 4.40464 104.063 5.20044V8.44804Z" fill="white"/>
<path d="M112.177 3.92961H110.85V6.56311C110.85 7.23241 111.085 7.56706 111.552 7.56706C111.768 7.56706 111.948 7.54866 112.089 7.51071L112.12 8.42496C111.882 8.51466 111.569 8.55951 111.184 8.55951C110.708 8.55951 110.338 8.41461 110.07 8.12481C109.801 7.83501 109.667 7.34741 109.667 6.66316V3.92961H108.875V3.02686H109.667V2.03326L110.848 1.67676V3.02571H112.175V3.92961H112.177Z" fill="white"/>
<path d="M118.556 8.44761H117.349V5.36561C117.349 4.39386 116.986 3.90741 116.258 3.90741C115.699 3.90741 115.317 4.18916 115.108 4.75266C115.072 4.87111 115.052 5.01601 115.052 5.18621V8.44646H113.848V0.539062H115.052V3.80621H115.075C115.454 3.21166 115.998 2.91496 116.703 2.91496C117.202 2.91496 117.615 3.07826 117.943 3.40601C118.351 3.81426 118.556 4.42146 118.556 5.22416V8.44761Z" fill="white"/>
<path d="M125.136 5.4811C125.136 5.6973 125.12 5.879 125.091 6.02735H121.477C121.493 6.56325 121.665 6.9715 122 7.2544C122.306 7.5074 122.7 7.6339 123.183 7.6339C123.718 7.6339 124.206 7.5488 124.645 7.37745L124.834 8.21465C124.32 8.43775 123.715 8.5493 123.014 8.5493C122.175 8.5493 121.514 8.30205 121.035 7.80755C120.554 7.31305 120.316 6.6495 120.316 5.8169C120.316 4.99925 120.538 4.31845 120.986 3.77565C121.453 3.19605 122.084 2.90625 122.881 2.90625C123.661 2.90625 124.253 3.19605 124.653 3.77565C124.976 4.23565 125.136 4.8049 125.136 5.4811ZM123.986 5.16945C123.995 4.8118 123.916 4.5036 123.753 4.2437C123.543 3.90905 123.225 3.74115 122.794 3.74115C122.4 3.74115 122.079 3.90445 121.834 4.2322C121.634 4.49325 121.516 4.8049 121.477 5.16945H123.986Z" fill="white"/>
</svg>
