<svg width="40" height="40" viewBox="0 0 40 40" fill="none" xmlns="http://www.w3.org/2000/svg">
<circle cx="20" cy="20" r="19.5" fill="#FFD600" stroke="#FFD600"/>
<path d="M11.5859 16.9277L9.26562 24H7.39648L10.5664 15.4688H11.7559L11.5859 16.9277ZM13.5137 24L11.1875 16.9277L11 15.4688H12.2012L15.3887 24H13.5137ZM13.4082 20.8242V22.2012H8.90234V20.8242H13.4082ZM19.2676 15.4688V24H17.5156V15.4688H19.2676ZM21.8926 15.4688V16.8457H14.9316V15.4688H21.8926ZM23.6973 15.4688H25.1855L27.377 21.7324L29.5684 15.4688H31.0566L27.9746 24H26.7793L23.6973 15.4688ZM22.8945 15.4688H24.377L24.6465 21.5742V24H22.8945V15.4688ZM30.377 15.4688H31.8652V24H30.1074V21.5742L30.377 15.4688Z" fill="white"/>
</svg>
