<svg width="43" height="43" viewBox="0 0 43 43" fill="none" xmlns="http://www.w3.org/2000/svg">
<g clip-path="url(#clip0_9296_32422)">
<path d="M26.8747 7.16732V19.709H9.26259L7.16634 21.8052V7.16732H26.8747ZM28.6663 3.58398H5.37467C4.38926 3.58398 3.58301 4.39023 3.58301 5.37565V30.459L10.7497 23.2923H28.6663C29.6518 23.2923 30.458 22.4861 30.458 21.5007V5.37565C30.458 4.39023 29.6518 3.58398 28.6663 3.58398ZM37.6247 10.7507H34.0413V26.8757H10.7497V30.459C10.7497 31.4444 11.5559 32.2507 12.5413 32.2507H32.2497L39.4163 39.4173V12.5423C39.4163 11.5569 38.6101 10.7507 37.6247 10.7507Z" fill="#212529"/>
</g>
<defs>
<clipPath id="clip0_9296_32422">
<rect width="43" height="43" fill="white"/>
</clipPath>
</defs>
</svg>
