<svg width="16" height="16" viewBox="0 0 16 16" fill="none" xmlns="http://www.w3.org/2000/svg">
<g clip-path="url(#clip0_10694_6977)">
<path d="M8.00033 4.00046C10.527 4.00046 12.7803 5.42046 13.8803 7.66712C13.487 8.48046 12.9337 9.18046 12.2737 9.74712L13.2137 10.6871C14.1403 9.86712 14.8737 8.84046 15.3337 7.66712C14.1803 4.74046 11.3337 2.66712 8.00033 2.66712C7.15366 2.66712 6.34032 2.80046 5.57366 3.04712L6.67366 4.14712C7.10699 4.06046 7.54699 4.00046 8.00033 4.00046ZM7.28699 4.76046L8.66699 6.14046C9.04699 6.30712 9.35366 6.61379 9.52032 6.99379L10.9003 8.37379C10.9537 8.14712 10.9937 7.90712 10.9937 7.66046C11.0003 6.00712 9.65366 4.66712 8.00033 4.66712C7.75366 4.66712 7.52033 4.70046 7.28699 4.76046ZM1.34033 2.58046L3.12699 4.36712C2.04033 5.22046 1.18033 6.35379 0.666992 7.66712C1.82033 10.5938 4.66699 12.6671 8.00033 12.6671C9.01366 12.6671 9.98699 12.4738 10.8803 12.1205L13.1603 14.4005L14.1003 13.4605L2.28033 1.63379L1.34033 2.58046ZM6.34033 7.58046L8.08033 9.32046C8.05366 9.32712 8.02699 9.33379 8.00033 9.33379C7.08033 9.33379 6.33366 8.58712 6.33366 7.66712C6.33366 7.63379 6.34033 7.61379 6.34033 7.58046ZM4.07366 5.31379L5.24033 6.48046C5.08699 6.84712 5.00033 7.24712 5.00033 7.66712C5.00033 9.32046 6.34699 10.6671 8.00033 10.6671C8.42033 10.6671 8.82032 10.5805 9.18033 10.4271L9.83366 11.0805C9.24699 11.2405 8.63366 11.3338 8.00033 11.3338C5.47366 11.3338 3.22033 9.91379 2.12033 7.66712C2.58699 6.71379 3.26699 5.92712 4.07366 5.31379Z" fill="#212529"/>
</g>
<defs>
<clipPath id="clip0_10694_6977">
<rect width="16" height="16" fill="white"/>
</clipPath>
</defs>
</svg>
