<svg width="134" height="33" viewBox="0 0 134 33" fill="none" xmlns="http://www.w3.org/2000/svg">
<path d="M70.7845 8.21656C69.7477 8.21656 68.8738 7.85234 68.1826 7.13539C67.4972 6.4385 67.1144 5.47778 67.1316 4.49698C67.1316 3.45022 67.4857 2.56406 68.1826 1.86145C68.8709 1.14449 69.7449 0.780273 70.7816 0.780273C71.807 0.780273 72.6809 1.14449 73.3835 1.86145C74.0804 2.58701 74.4345 3.47317 74.4345 4.49698C74.4231 5.54661 74.069 6.43277 73.3835 7.13252C72.6952 7.85521 71.8212 8.21656 70.7845 8.21656ZM39.9361 8.21656C38.9222 8.21656 38.0426 7.85808 37.3228 7.14972C36.6088 6.44424 36.2461 5.55234 36.2461 4.49985C36.2461 3.44736 36.6088 2.55546 37.3228 1.84997C38.0283 1.14162 38.9079 0.783141 39.9361 0.783141C40.4388 0.783141 40.9272 0.883516 41.3956 1.08713C41.8554 1.28501 42.2295 1.55459 42.5066 1.88439L42.5751 1.96756L41.8011 2.7304L41.7212 2.63576C41.2842 2.11381 40.6987 1.85858 39.9247 1.85858C39.2335 1.85858 38.6309 2.10521 38.134 2.59274C37.6341 3.08314 37.38 3.72554 37.38 4.50272C37.38 5.2799 37.6341 5.92229 38.134 6.41269C38.6309 6.90022 39.2335 7.14686 39.9247 7.14686C40.6616 7.14686 41.2813 6.90022 41.764 6.41269C42.0496 6.12591 42.2267 5.72441 42.2895 5.21681H39.8076V4.14424H43.3548L43.3691 4.24174C43.3948 4.42242 43.4205 4.60883 43.4205 4.7809C43.4205 5.7703 43.1235 6.57042 42.5351 7.1612C41.8668 7.86095 40.9929 8.21656 39.9361 8.21656ZM80.9521 8.06456H79.8582L76.508 2.68165L76.5366 3.65097V8.0617H75.4427V0.935137H76.6908L76.7251 0.989626L79.8753 6.05995L79.8468 5.09349V0.935137H80.9521V8.06456ZM62.5647 8.06456H61.4566V2.00771H59.5344V0.935137H64.484V2.00771H62.5619V8.06456H62.5647ZM58.6319 8.06456H57.5266V0.935137H58.6319V8.06456ZM52.42 8.06456H51.3147V2.00771H49.3926V0.935137H54.3421V2.00771H52.42V8.06456ZM48.6928 8.05309H44.4544V0.935137H48.6928V2.00771H45.5626V3.96357H48.3872V5.02466H45.5626V6.98052H48.6928V8.05309ZM68.9937 6.39835C69.4878 6.89449 70.0876 7.14399 70.7845 7.14399C71.5014 7.14399 72.0869 6.90022 72.5752 6.39835C73.0608 5.91082 73.3064 5.2713 73.3064 4.49985C73.3064 3.7284 73.0608 3.08601 72.5781 2.60135C72.084 2.10521 71.4814 1.85571 70.7873 1.85571C70.0705 1.85571 69.485 2.09948 68.9995 2.60135C68.5139 3.08888 68.2683 3.7284 68.2683 4.49985C68.2683 5.2713 68.5111 5.91369 68.9937 6.39835Z" fill="black"/>
<path fill-rule="evenodd" clip-rule="evenodd" d="M67.031 18.0186C64.332 18.0186 62.1443 20.0748 62.1443 22.9111C62.1443 25.7216 64.3463 27.8036 67.031 27.8036C69.73 27.8036 71.9177 25.7331 71.9177 22.9111C71.9177 20.0748 69.73 18.0186 67.031 18.0186ZM67.031 25.865C65.5544 25.865 64.2834 24.6375 64.2834 22.8996C64.2834 21.1359 65.5573 19.9343 67.031 19.9343C68.5076 19.9343 69.7785 21.1359 69.7785 22.8996C69.7814 24.649 68.5076 25.865 67.031 25.865ZM56.3693 18.0186C53.6703 18.0186 51.4826 20.0748 51.4826 22.9111C51.4826 25.7216 53.6846 27.8036 56.3693 27.8036C59.0683 27.8036 61.256 25.7331 61.256 22.9111C61.256 20.0748 59.0654 18.0186 56.3693 18.0186ZM56.3693 25.865C54.8927 25.865 53.6218 24.6375 53.6218 22.8996C53.6218 21.1359 54.8956 19.9343 56.3693 19.9343C57.8459 19.9343 59.1168 21.1359 59.1168 22.8996C59.1168 24.649 57.8459 25.865 56.3693 25.865ZM43.6826 19.5127V21.5833H48.6322C48.4808 22.7448 48.0981 23.6023 47.5126 24.1902C46.7872 24.9186 45.6676 25.7101 43.6941 25.7101C40.6524 25.7101 38.2733 23.2438 38.2733 20.1895C38.2733 17.1353 40.6524 14.669 43.6941 14.669C45.3363 14.669 46.533 15.32 47.4212 16.1516L48.8835 14.6833C47.6497 13.496 46.0075 12.5869 43.7055 12.5869C39.5328 12.5869 36.0312 15.9996 36.0312 20.1781C36.0312 24.368 39.5299 27.7692 43.7055 27.7692C45.9589 27.7692 47.6497 27.0293 48.9864 25.6355C50.3487 24.2676 50.78 22.3375 50.78 20.7803C50.78 20.2956 50.7428 19.8597 50.6657 19.4898H43.6798C43.6827 19.4869 43.6826 19.5127 43.6826 19.5127ZM95.5745 21.1244C95.1661 20.0261 93.9323 18.0071 91.4018 18.0071C88.8942 18.0071 86.8092 19.9888 86.8092 22.8996C86.8092 25.647 88.8713 27.7922 91.6446 27.7922C93.8723 27.7922 95.1689 26.4242 95.703 25.6212L94.0494 24.5085C93.501 25.3258 92.7384 25.8621 91.656 25.8621C90.5621 25.8621 89.7967 25.3631 89.2883 24.3794L95.803 21.6693C95.803 21.6722 95.5745 21.1244 95.5745 21.1244ZM88.9313 22.7591C88.8799 20.8692 90.3936 19.9085 91.476 19.9085C92.33 19.9085 93.0412 20.3301 93.2839 20.9438L88.9313 22.7591ZM83.639 27.4996H85.7782V13.1261H83.639V27.4996ZM80.126 19.1055H80.0489C79.5663 18.5291 78.6495 18.0071 77.4785 18.0071C75.048 18.0071 72.8088 20.1551 72.8088 22.914C72.8088 25.6614 75.0365 27.7836 77.4785 27.7836C78.6352 27.7836 79.5663 27.2587 80.0489 26.6708H80.126V27.3734C80.126 29.2404 79.1321 30.247 77.5299 30.247C76.2189 30.247 75.405 29.3006 75.0737 28.5091L73.2144 29.2892C73.7485 30.5797 75.1736 32.1771 77.527 32.1771C80.0347 32.1771 82.1596 30.6944 82.1596 27.0781V18.2996H80.1375V19.1055C80.1403 19.1055 80.126 19.1055 80.126 19.1055ZM77.6698 25.865C76.1932 25.865 74.9594 24.6261 74.9594 22.914C74.9594 21.1875 76.1932 19.9372 77.6698 19.9372C79.1321 19.9372 80.266 21.2019 80.266 22.914C80.2803 24.6261 79.135 25.865 77.6698 25.865ZM105.591 13.1261H100.476V27.4996H102.615V22.0565H105.594C107.961 22.0565 110.289 20.3329 110.289 17.597C110.289 14.8611 107.97 13.1261 105.591 13.1261ZM105.654 20.049H102.612V15.1163H105.654C107.256 15.1163 108.161 16.4441 108.161 17.5827C108.161 18.7097 107.244 20.049 105.654 20.049ZM118.863 17.9928C117.309 17.9928 115.707 18.6839 115.044 20.1895L116.941 20.9811C117.349 20.1895 118.097 19.92 118.889 19.92C119.997 19.92 121.116 20.5853 121.142 21.7726V21.9246C120.759 21.7066 119.92 21.3739 118.914 21.3739C116.866 21.3739 114.79 22.4981 114.79 24.606C114.79 26.536 116.469 27.7749 118.34 27.7749C119.777 27.7749 120.568 27.1239 121.062 26.3697H121.139V27.4824H123.201V21.9762C123.201 19.4124 121.305 17.9928 118.863 17.9928ZM118.594 25.865C117.895 25.865 116.915 25.5208 116.915 24.6375C116.915 23.5248 118.137 23.1032 119.18 23.1032C120.122 23.1032 120.568 23.3069 121.128 23.5879C120.973 24.8784 119.888 25.8535 118.594 25.865ZM130.724 18.2996L128.268 24.5343H128.191L125.646 18.2996H123.344L127.163 27.015L124.986 31.8587H127.214L133.089 18.2996H130.724ZM111.469 27.4996H113.608V13.1261H111.469V27.4996Z" fill="black"/>
<path fill-rule="evenodd" clip-rule="evenodd" d="M0.948441 1.66337C0.617137 2.02185 0.425781 2.5696 0.425781 3.28656V28.7156C0.425781 29.4326 0.617137 29.9803 0.959865 30.3245L1.0484 30.4019L15.2373 16.1545V15.8362L1.03698 1.58594L0.948441 1.66337Z" fill="url(#paint0_linear_29338_90324)"/>
<path fill-rule="evenodd" clip-rule="evenodd" d="M19.9591 20.9187L15.2266 16.1667V15.834L19.9591 11.082L20.0619 11.1451L25.6598 14.3399C27.262 15.2461 27.262 16.7431 25.6598 17.6608L20.0619 20.8556L19.9591 20.9187Z" fill="url(#paint1_linear_29338_90324)"/>
<path fill-rule="evenodd" clip-rule="evenodd" d="M20.062 20.8552L15.2267 16L0.949219 30.3363C1.47188 30.8984 2.34869 30.9615 3.32832 30.4137L20.062 20.8552Z" fill="url(#paint2_linear_29338_90324)"/>
<path fill-rule="evenodd" clip-rule="evenodd" d="M20.062 11.1448L3.32832 1.60067C2.34869 1.03857 1.46902 1.11601 0.949219 1.6781L15.2267 16L20.062 11.1448Z" fill="url(#paint3_linear_29338_90324)"/>
<defs>
<linearGradient id="paint0_linear_29338_90324" x1="13.9646" y1="3.01221" x2="-8.77595" y2="9.0466" gradientUnits="userSpaceOnUse">
<stop stop-color="#00A0FF"/>
<stop offset="0.00657" stop-color="#00A1FF"/>
<stop offset="0.2601" stop-color="#00BEFF"/>
<stop offset="0.5122" stop-color="#00D2FF"/>
<stop offset="0.7604" stop-color="#00DFFF"/>
<stop offset="1" stop-color="#00E3FF"/>
</linearGradient>
<linearGradient id="paint1_linear_29338_90324" x1="27.7493" y1="16.0004" x2="0.0370086" y2="16.0004" gradientUnits="userSpaceOnUse">
<stop stop-color="#FFE000"/>
<stop offset="0.4087" stop-color="#FFBD00"/>
<stop offset="0.7754" stop-color="#FFA500"/>
<stop offset="1" stop-color="#FF9C00"/>
</linearGradient>
<linearGradient id="paint2_linear_29338_90324" x1="17.4328" y1="18.6419" x2="-0.924441" y2="49.4119" gradientUnits="userSpaceOnUse">
<stop stop-color="#FF3A44"/>
<stop offset="1" stop-color="#C31162"/>
</linearGradient>
<linearGradient id="paint3_linear_29338_90324" x1="-2.646" y1="-6.79434" x2="5.5439" y2="6.94803" gradientUnits="userSpaceOnUse">
<stop stop-color="#32A071"/>
<stop offset="0.0685" stop-color="#2DA771"/>
<stop offset="0.4762" stop-color="#15CF74"/>
<stop offset="0.8009" stop-color="#06E775"/>
<stop offset="1" stop-color="#00F076"/>
</linearGradient>
</defs>
</svg>
