<svg width="24" height="21" viewBox="0 0 20 21" fill="none" xmlns="http://www.w3.org/2000/svg">
<path d="M10 0.941406C15.5228 0.941406 20 5.41856 20 10.9414C20 16.4642 15.5228 20.9414 10 20.9414C8.3817 20.9414 6.81782 20.556 5.41286 19.8294L1.58704 20.8967C0.92212 21.0824 0.23258 20.6939 0.04691 20.029C-0.01454 19.809 -0.0145099 19.5763 0.0469501 19.3565L1.11461 15.5336C0.38637 14.1274 0 12.5617 0 10.9414C0 5.41856 4.47715 0.941406 10 0.941406ZM10 2.44141C5.30558 2.44141 1.5 6.24699 1.5 10.9414C1.5 12.411 1.87277 13.8248 2.57303 15.0789L2.72368 15.3486L1.61096 19.3328L5.59755 18.2206L5.86709 18.3709C7.12006 19.0695 8.5322 19.4414 10 19.4414C14.6944 19.4414 18.5 15.6358 18.5 10.9414C18.5 6.24699 14.6944 2.44141 10 2.44141ZM10 14.4414C10.5523 14.4414 11 14.8891 11 15.4414C11 15.9937 10.5523 16.4414 10 16.4414C9.4477 16.4414 9 15.9937 9 15.4414C9 14.8891 9.4477 14.4414 10 14.4414ZM10 5.69141C11.5188 5.69141 12.75 6.92263 12.75 8.44141C12.75 9.45221 12.4525 10.0154 11.6989 10.8L11.5303 10.9717C10.9084 11.5936 10.75 11.8577 10.75 12.4414C10.75 12.8556 10.4142 13.1914 10 13.1914C9.5858 13.1914 9.25 12.8556 9.25 12.4414C9.25 11.4306 9.5475 10.8674 10.3011 10.0828L10.4697 9.91111C11.0916 9.28921 11.25 9.02511 11.25 8.44141C11.25 7.75105 10.6904 7.19141 10 7.19141C9.3528 7.19141 8.8205 7.68328 8.7565 8.3136L8.75 8.44141C8.75 8.85562 8.4142 9.19141 8 9.19141C7.58579 9.19141 7.25 8.85562 7.25 8.44141C7.25 6.92263 8.4812 5.69141 10 5.69141Z" fill="#212529"/>
</svg>
