<svg width="24" height="24" viewBox="0 0 24 25" fill="none" xmlns="http://www.w3.org/2000/svg">
<path d="M12.0001 2.9375C16.05 2.9375 19.3568 6.13225 19.4959 10.1866L19.5001 10.4375V14.5345L20.8801 17.6905C20.9492 17.8484 20.9848 18.0189 20.9848 18.1913C20.9848 18.8816 20.4252 19.4413 19.7348 19.4413L15.0001 19.4428C15.0001 21.0996 13.657 22.4428 12.0001 22.4428C10.4024 22.4428 9.09645 21.1938 9.0052 19.619L8.99966 19.4405L4.27498 19.4413C4.10364 19.4413 3.93413 19.406 3.77697 19.3378C3.14377 19.0627 2.85342 18.3265 3.12846 17.6933L4.50011 14.5354V10.4374C4.50071 6.28261 7.8522 2.9375 12.0001 2.9375ZM13.4997 19.4405L10.5001 19.4428C10.5001 20.2712 11.1717 20.9428 12.0001 20.9428C12.7798 20.9428 13.4206 20.3479 13.4932 19.5872L13.4997 19.4405ZM12.0001 4.4375C8.67995 4.4375 6.00059 7.11176 6.00011 10.4375V14.8471L4.65613 17.9413H19.3526L18.0001 14.8481L18.0002 10.4504L17.9965 10.2252C17.8854 6.99168 15.2417 4.4375 12.0001 4.4375Z" fill="#212529"/>
</svg>
