<svg width="33" height="33" viewBox="0 0 33 33" fill="none" xmlns="http://www.w3.org/2000/svg">
<path d="M6.7175 3.95833C6.825 5.55292 7.09375 7.11167 7.52375 8.59875L5.37375 10.7487C4.63917 8.59875 4.17333 6.32333 4.01208 3.95833H6.7175V3.95833ZM24.3833 25.4942C25.9062 25.9242 27.465 26.1929 29.0417 26.3004V28.97C26.6767 28.8087 24.4012 28.3429 22.2333 27.6262L24.3833 25.4942V25.4942ZM8.4375 0.375H2.16667C1.18125 0.375 0.375 1.18125 0.375 2.16667C0.375 18.9904 14.0096 32.625 30.8333 32.625C31.8187 32.625 32.625 31.8187 32.625 30.8333V24.5804C32.625 23.595 31.8187 22.7887 30.8333 22.7887C28.6117 22.7887 26.4437 22.4304 24.4371 21.7675C24.2579 21.6958 24.0608 21.6779 23.8817 21.6779C23.4158 21.6779 22.9679 21.8571 22.6096 22.1975L18.6679 26.1392C13.5975 23.5412 9.44083 19.4025 6.86083 14.3321L10.8025 10.3904C11.3042 9.88875 11.4475 9.19 11.2504 8.56292C10.5875 6.55625 10.2292 4.40625 10.2292 2.16667C10.2292 1.18125 9.42292 0.375 8.4375 0.375Z" fill="#212529"/>
</svg>
