<svg width="43" height="44" viewBox="0 0 43 44" fill="none" xmlns="http://www.w3.org/2000/svg">
<g clip-path="url(#clip0_9628_6774)">
<path d="M42.4804 30.4118C37.0158 25.2433 29.6342 22.0599 21.5 22.0599C13.3658 22.0599 5.98417 25.2433 0.519583 30.4118C0.197083 30.7337 0 31.1808 0 31.6816C0 32.1824 0.197083 32.6295 0.519583 32.9514L4.96292 37.3866C5.28542 37.7086 5.73333 37.9053 6.235 37.9053C6.71875 37.9053 7.16667 37.7086 7.48917 37.4045C8.90458 36.0811 10.5171 34.9723 12.255 34.096C12.8463 33.8098 13.2583 33.2018 13.2583 32.4864V26.9423C15.8562 26.0839 18.6333 25.6368 21.5 25.6368C24.3667 25.6368 27.1437 26.0839 29.7417 26.9244V32.4685C29.7417 33.166 30.1537 33.7919 30.745 34.0781C32.5008 34.9544 34.0954 36.0811 35.5108 37.3866C35.8333 37.7086 36.2812 37.8874 36.765 37.8874C37.2667 37.8874 37.7146 37.6907 38.0371 37.3688L42.4804 32.9335C42.8029 32.6116 43 32.1645 43 31.6637C43 31.1808 42.8029 30.7337 42.4804 30.4118V30.4118ZM9.675 31.4133C8.4925 32.0751 7.36375 32.8441 6.32458 33.6846L4.4075 31.771C6.03792 30.4297 7.81167 29.2851 9.69292 28.373V31.4133H9.675ZM36.6754 33.6667C35.6183 32.8083 34.5075 32.0572 33.325 31.3955V28.3552C35.1883 29.2672 36.9621 30.4118 38.5925 31.7531L36.6754 33.6667ZM37.9117 11.7944L35.3854 9.27276L29.0071 15.6216L31.5333 18.1433C31.5333 18.1433 37.7146 11.8481 37.9117 11.7944V11.7944ZM19.7083 4.17578H23.2917V13.1179H19.7083V4.17578ZM11.4667 18.1433L13.9929 15.6216L7.6325 9.25488L5.08833 11.7944C5.28542 11.8481 11.4667 18.1433 11.4667 18.1433V18.1433Z" fill="#212529"/>
</g>
<defs>
<clipPath id="clip0_9628_6774">
<rect width="43" height="42.922" fill="white" transform="translate(0 0.599609)"/>
</clipPath>
</defs>
</svg>
