<svg width="24" height="24" viewBox="0 0 24 25" fill="none" xmlns="http://www.w3.org/2000/svg">
<path d="M4.5 10.9414C4.5 7.90384 6.96243 5.44141 10 5.44141C13.0376 5.44141 15.5 7.90384 15.5 10.9414C15.5 13.979 13.0376 16.4414 10 16.4414C6.96243 16.4414 4.5 13.979 4.5 10.9414ZM10 3.94141C6.13401 3.94141 3 7.07542 3 10.9414C3 14.8074 6.13401 17.9414 10 17.9414C11.6628 17.9414 13.1902 17.3616 14.3911 16.3932L19.7197 21.7217C20.0126 22.0146 20.4874 22.0146 20.7803 21.7217C21.0732 21.4288 21.0732 20.954 20.7803 20.6611L15.4518 15.3325C16.4202 14.1316 17 12.6042 17 10.9414C17 7.07542 13.866 3.94141 10 3.94141Z" fill="#212529"/>
</svg>
